<svg xmlns="http://www.w3.org/2000/svg" width="169.64" height="101.557" viewBox="0 0 169.64 101.557"><g transform="translate(-5286 107.262)"><path d="M28.56.8Q17.12.8,10.68-4.76T3.84-20.88q-.08-2.16-.08-7.04,0-4.96.08-7.2.4-10.4,6.96-16.04T28.56-56.8A32.268,32.268,0,0,1,41.2-54.44a20.772,20.772,0,0,1,8.84,6.72,17.04,17.04,0,0,1,3.32,10.2v.16a1.363,1.363,0,0,1-.52,1.08,1.752,1.752,0,0,1-1.16.44H40.88a2.54,2.54,0,0,1-1.6-.44,3.448,3.448,0,0,1-.96-1.64Q37.2-42,34.8-43.64a11,11,0,0,0-6.32-1.64q-9.44,0-9.76,10.56-.08,2.16-.08,6.64t.08,6.8q.32,10.56,9.76,10.56a10.994,10.994,0,0,0,6.4-1.72,9.18,9.18,0,0,0,3.44-5.64,3.041,3.041,0,0,1,.88-1.64,2.689,2.689,0,0,1,1.68-.44h10.8a1.765,1.765,0,0,1,1.24.48,1.345,1.345,0,0,1,.44,1.2,17.04,17.04,0,0,1-3.32,10.2A20.772,20.772,0,0,1,41.2-1.56,32.268,32.268,0,0,1,28.56.8ZM89.04.8A34.19,34.19,0,0,1,76-1.44a19.113,19.113,0,0,1-8.2-5.88,13.768,13.768,0,0,1-2.92-7.96,1.606,1.606,0,0,1,.52-1.16,1.693,1.693,0,0,1,1.24-.52H76.72a3,3,0,0,1,1.56.36,5.509,5.509,0,0,1,1.24,1.08,8.314,8.314,0,0,0,3.36,3.44,12.121,12.121,0,0,0,6.16,1.36A13.683,13.683,0,0,0,96-12.16a4.4,4.4,0,0,0,2.4-3.92,3.7,3.7,0,0,0-1.24-2.88,11.068,11.068,0,0,0-3.88-2,79.82,79.82,0,0,0-7.84-2q-9.6-2-14.36-5.88T66.32-39.92a14.716,14.716,0,0,1,2.72-8.72,17.821,17.821,0,0,1,7.76-6A29.664,29.664,0,0,1,88.56-56.8a28.219,28.219,0,0,1,12.08,2.4,19.909,19.909,0,0,1,7.8,6.04,13.139,13.139,0,0,1,2.84,7.16,1.628,1.628,0,0,1-.48,1.2,1.628,1.628,0,0,1-1.2.48H99.04a3.309,3.309,0,0,1-1.56-.32,3.061,3.061,0,0,1-1.08-1.04A5.271,5.271,0,0,0,93.8-44a9.974,9.974,0,0,0-5.24-1.28A9.941,9.941,0,0,0,83.04-44a4.231,4.231,0,0,0-1.92,3.76,3.874,3.874,0,0,0,1.08,2.8,9.621,9.621,0,0,0,3.52,2.04,50.409,50.409,0,0,0,7,1.88,51.189,51.189,0,0,1,11.88,3.4,14.8,14.8,0,0,1,6.52,5.28,14.751,14.751,0,0,1,2.08,8.12,14.738,14.738,0,0,1-3.08,9.32,19.4,19.4,0,0,1-8.56,6.08A34.518,34.518,0,0,1,89.04.8Zm59.44,0a34.19,34.19,0,0,1-13.04-2.24,19.113,19.113,0,0,1-8.2-5.88,13.768,13.768,0,0,1-2.92-7.96,1.606,1.606,0,0,1,.52-1.16,1.693,1.693,0,0,1,1.24-.52h10.08a3,3,0,0,1,1.56.36,5.508,5.508,0,0,1,1.24,1.08,8.314,8.314,0,0,0,3.36,3.44,12.121,12.121,0,0,0,6.16,1.36,13.683,13.683,0,0,0,6.96-1.44,4.4,4.4,0,0,0,2.4-3.92,3.7,3.7,0,0,0-1.24-2.88,11.068,11.068,0,0,0-3.88-2,79.82,79.82,0,0,0-7.84-2q-9.6-2-14.36-5.88t-4.76-11.08a14.716,14.716,0,0,1,2.72-8.72,17.821,17.821,0,0,1,7.76-6A29.664,29.664,0,0,1,148-56.8a28.219,28.219,0,0,1,12.08,2.4,19.909,19.909,0,0,1,7.8,6.04,13.139,13.139,0,0,1,2.84,7.16,1.628,1.628,0,0,1-.48,1.2,1.628,1.628,0,0,1-1.2.48H158.48a3.309,3.309,0,0,1-1.56-.32,3.061,3.061,0,0,1-1.08-1.04,5.271,5.271,0,0,0-2.6-3.12A9.974,9.974,0,0,0,148-45.28,9.941,9.941,0,0,0,142.48-44a4.231,4.231,0,0,0-1.92,3.76,3.874,3.874,0,0,0,1.08,2.8,9.621,9.621,0,0,0,3.52,2.04,50.409,50.409,0,0,0,7,1.88,51.189,51.189,0,0,1,11.88,3.4,14.8,14.8,0,0,1,6.52,5.28,14.751,14.751,0,0,1,2.08,8.12,14.738,14.738,0,0,1-3.08,9.32A19.4,19.4,0,0,1,161-1.32,34.518,34.518,0,0,1,148.48.8Z" transform="translate(5283 -50.462)" fill="#fff"/><path d="M2.49-17.85a.731.731,0,0,1-.54-.21.731.731,0,0,1-.21-.54v-2.7a.731.731,0,0,1,.21-.54.731.731,0,0,1,.54-.21h3.6a.731.731,0,0,1,.54.21.731.731,0,0,1,.21.54v2.7a.731.731,0,0,1-.21.54.731.731,0,0,1-.54.21ZM2.52,0a.731.731,0,0,1-.54-.21.731.731,0,0,1-.21-.54v-14.1a.731.731,0,0,1,.21-.54.731.731,0,0,1,.54-.21H6.06a.731.731,0,0,1,.54.21.731.731,0,0,1,.21.54V-.75a.745.745,0,0,1-.21.525A.706.706,0,0,1,6.06,0ZM12.6,0a.731.731,0,0,1-.54-.21.731.731,0,0,1-.21-.54v-14.1a.731.731,0,0,1,.21-.54.731.731,0,0,1,.54-.21h3.45a.783.783,0,0,1,.555.21.706.706,0,0,1,.225.54v1.14a5.876,5.876,0,0,1,2.085-1.59,6.72,6.72,0,0,1,2.9-.6,5.573,5.573,0,0,1,4.29,1.785A7.083,7.083,0,0,1,27.75-9.12V-.75a.745.745,0,0,1-.21.525A.706.706,0,0,1,27,0H23.22a.72.72,0,0,1-.525-.225A.72.72,0,0,1,22.47-.75V-8.94a3.137,3.137,0,0,0-.69-2.175,2.529,2.529,0,0,0-1.98-.765,2.588,2.588,0,0,0-1.98.765A3.053,3.053,0,0,0,17.1-8.94V-.75a.745.745,0,0,1-.21.525A.706.706,0,0,1,16.35,0ZM49.98,4.74A8.026,8.026,0,0,1,44.115,2.5Q41.91.3,41.91-3.93q0-2.55-1.65-3.42l-.39-.15a2.069,2.069,0,0,1-.63-.525,1.206,1.206,0,0,1-.18-.7V-9.84a1.149,1.149,0,0,1,.195-.69,1.918,1.918,0,0,1,.615-.51l.39-.18q1.65-.84,1.65-3.39,0-4.23,2.19-6.42a8.105,8.105,0,0,1,5.85-2.25h.18a.635.635,0,0,1,.465.195.635.635,0,0,1,.195.465v2.73a.611.611,0,0,1-.18.45.7.7,0,0,1-.42.21h-.12a3.467,3.467,0,0,0-2.715,1.3,6.622,6.622,0,0,0-.825,3.765,7.3,7.3,0,0,1-.615,3.135,3.4,3.4,0,0,1-1.6,1.755,3.4,3.4,0,0,1,1.6,1.8,7.379,7.379,0,0,1,.615,3.09,6.72,6.72,0,0,0,.81,3.765A3.419,3.419,0,0,0,50.04.69l.15.03a.555.555,0,0,1,.42.195.662.662,0,0,1,.18.465v2.7a.622.622,0,0,1-.195.48.662.662,0,0,1-.465.18ZM62.43.3a12.821,12.821,0,0,1-4.89-.84,7.167,7.167,0,0,1-3.075-2.2,5.163,5.163,0,0,1-1.1-2.985.6.6,0,0,1,.195-.435.635.635,0,0,1,.465-.2h3.78a1.126,1.126,0,0,1,.585.135,2.066,2.066,0,0,1,.465.4,3.118,3.118,0,0,0,1.26,1.29,4.545,4.545,0,0,0,2.31.51,5.131,5.131,0,0,0,2.61-.54,1.649,1.649,0,0,0,.9-1.47,1.389,1.389,0,0,0-.465-1.08,4.151,4.151,0,0,0-1.455-.75,29.933,29.933,0,0,0-2.94-.75,12.619,12.619,0,0,1-5.385-2.205A5.053,5.053,0,0,1,53.91-14.97a5.519,5.519,0,0,1,1.02-3.27,6.683,6.683,0,0,1,2.91-2.25,11.124,11.124,0,0,1,4.41-.81,10.582,10.582,0,0,1,4.53.9,7.466,7.466,0,0,1,2.925,2.265A4.927,4.927,0,0,1,70.77-15.45a.611.611,0,0,1-.18.45.611.611,0,0,1-.45.18H66.18a1.241,1.241,0,0,1-.585-.12,1.148,1.148,0,0,1-.4-.39,1.977,1.977,0,0,0-.975-1.17,3.74,3.74,0,0,0-1.965-.48,3.728,3.728,0,0,0-2.07.48,1.587,1.587,0,0,0-.72,1.41,1.453,1.453,0,0,0,.4,1.05,3.608,3.608,0,0,0,1.32.765,18.9,18.9,0,0,0,2.625.7A19.2,19.2,0,0,1,68.265-11.3a5.55,5.55,0,0,1,2.445,1.98,5.532,5.532,0,0,1,.78,3.045,5.527,5.527,0,0,1-1.155,3.495A7.276,7.276,0,0,1,67.125-.5,12.944,12.944,0,0,1,62.43.3ZM81.15,0a.72.72,0,0,1-.525-.225A.72.72,0,0,1,80.4-.75V-16.29H75.06a.72.72,0,0,1-.525-.225.72.72,0,0,1-.225-.525v-3.21a.706.706,0,0,1,.225-.54A.745.745,0,0,1,75.06-21H91.2a.731.731,0,0,1,.54.21.731.731,0,0,1,.21.54v3.21a.731.731,0,0,1-.21.54.731.731,0,0,1-.54.21H85.86V-.75a.745.745,0,0,1-.21.525A.706.706,0,0,1,85.11,0Zm21.18,0a.72.72,0,0,1-.525-.225.72.72,0,0,1-.225-.525V-7.2L94.62-20.04a1.655,1.655,0,0,1-.09-.33.6.6,0,0,1,.195-.435A.635.635,0,0,1,95.19-21h3.75a1.285,1.285,0,0,1,1.05.63l4.29,7.74,4.32-7.74a1.144,1.144,0,0,1,1.05-.63h3.75a.587.587,0,0,1,.45.195.626.626,0,0,1,.18.435,1.051,1.051,0,0,1-.06.33L107.01-7.2V-.75a.706.706,0,0,1-.225.54.783.783,0,0,1-.555.21Zm16.53,0a.72.72,0,0,1-.525-.225.72.72,0,0,1-.225-.525v-19.5a.706.706,0,0,1,.225-.54.745.745,0,0,1,.525-.21h3.96a.731.731,0,0,1,.54.21.731.731,0,0,1,.21.54V-4.53h9.09a.706.706,0,0,1,.54.225.783.783,0,0,1,.21.555v3a.745.745,0,0,1-.21.525.706.706,0,0,1-.54.225Zm19.41,0a.72.72,0,0,1-.525-.225.72.72,0,0,1-.225-.525v-19.5a.706.706,0,0,1,.225-.54.745.745,0,0,1,.525-.21h14.01a.731.731,0,0,1,.54.21.731.731,0,0,1,.21.54v2.82a.745.745,0,0,1-.21.525.706.706,0,0,1-.54.225h-9.57v4.05h8.91a.706.706,0,0,1,.54.225.783.783,0,0,1,.21.555v2.61a.745.745,0,0,1-.21.525.706.706,0,0,1-.54.225h-8.91v4.17h9.81a.731.731,0,0,1,.54.21.731.731,0,0,1,.21.54V-.75a.745.745,0,0,1-.21.525.706.706,0,0,1-.54.225Zm19.38-23.28a8.026,8.026,0,0,1,5.865,2.235q2.205,2.2,2.205,6.435a5.067,5.067,0,0,0,.39,2.13,2.716,2.716,0,0,0,1.26,1.29l.36.18a1.918,1.918,0,0,1,.615.51,1.15,1.15,0,0,1,.195.69V-8.7a1.15,1.15,0,0,1-.195.69,1.918,1.918,0,0,1-.615.51l-.39.18q-1.62.84-1.62,3.39,0,4.23-2.19,6.435a7.974,7.974,0,0,1-5.85,2.235h-.18a.619.619,0,0,1-.66-.66V1.38a.649.649,0,0,1,.18-.48.576.576,0,0,1,.42-.18h.09a3.5,3.5,0,0,0,2.745-1.305A6.622,6.622,0,0,0,161.1-4.35a7.438,7.438,0,0,1,.6-3.15,3.492,3.492,0,0,1,1.59-1.77,3.285,3.285,0,0,1-1.575-1.77,7.456,7.456,0,0,1-.615-3.12,6.632,6.632,0,0,0-.825-3.75,3.415,3.415,0,0,0-2.685-1.32h-.15a.7.7,0,0,1-.42-.21.611.611,0,0,1-.18-.45v-2.73a.662.662,0,0,1,.18-.465.622.622,0,0,1,.48-.195Z" transform="translate(5286 -19.034)" fill="#fff"/><rect width="120" height="6" transform="translate(5286 -11.705)" fill="#fff"/></g></svg>