<svg xmlns="http://www.w3.org/2000/svg" xmlns:xlink="http://www.w3.org/1999/xlink" width="240" height="800" viewBox="0 0 240 800"><defs><clipPath id="a"><rect width="240" height="800" transform="translate(5983.551 -0.294) rotate(90)" fill="#673ab7" stroke="#707070" stroke-width="1"/></clipPath></defs><g transform="translate(-5250 140)"><rect width="240" height="800" transform="translate(5250 -140)" fill="#673ab7"/><g transform="translate(5250.294 5843.551) rotate(-90)" opacity="0.4"><g clip-path="url(#a)"><path d="M859.492,357.643V494.592C555.355,480.151,309.01,269.3,272.979-.036H425.9C460.311,193.7,639.076,343.887,859.492,357.643" transform="translate(5124.021 0.036)" fill="#7449c1"/><path d="M747.625,198.031V357.646C527.208,343.887,348.443,193.7,314.033-.036H493.677c30.7,105.616,131.019,185.76,253.948,198.067" transform="translate(5235.889 0.036)" fill="#875bd6"/><path d="M616.209-.036V198.031C493.28,185.72,392.958,105.58,362.261-.036Z" transform="translate(5367.304 0.036)" fill="#9b6ded"/></g></g></g></svg>