<svg xmlns="http://www.w3.org/2000/svg" width="1143.764" height="77.67" viewBox="0 0 1143.764 77.67">
  <g id="Group_379" data-name="Group 379" transform="translate(-241 -1417)">
    <g id="Group_256" data-name="Group 256" transform="translate(0 -179.885)">
      <path id="Path_138" data-name="Path 138" d="M17.962,14.883H10.494A1.494,1.494,0,0,0,9,16.377v7.468a1.494,1.494,0,0,0,1.494,1.494h7.468a1.494,1.494,0,0,0,1.494-1.494V16.377a1.494,1.494,0,0,0-1.494-1.494Zm-1.494,7.468H11.987V17.87h4.481Z" transform="translate(538.456 1589.474)" fill="#067ce0"/>
      <path id="Path_139" data-name="Path 139" d="M28.962,14.883H21.494A1.494,1.494,0,0,0,20,16.377v7.468a1.494,1.494,0,0,0,1.494,1.494h7.468a1.494,1.494,0,0,0,1.494-1.494V16.377a1.494,1.494,0,0,0-1.494-1.494Zm-1.494,7.468H22.987V17.87h4.481Z" transform="translate(543.886 1589.474)" fill="#067ce0"/>
      <path id="Path_140" data-name="Path 140" d="M17.962,23.883H10.494A1.494,1.494,0,0,0,9,25.377v7.468a1.494,1.494,0,0,0,1.494,1.494h7.468a1.494,1.494,0,0,0,1.494-1.494V25.377A1.494,1.494,0,0,0,17.962,23.883Zm-1.494,7.468H11.987V26.87h4.481Z" transform="translate(538.456 1593.917)" fill="#067ce0"/>
      <path id="Path_141" data-name="Path 141" d="M28.962,23.883H21.494A1.494,1.494,0,0,0,20,25.377v7.468a1.494,1.494,0,0,0,1.494,1.494h7.468a1.494,1.494,0,0,0,1.494-1.494V25.377A1.494,1.494,0,0,0,28.962,23.883Zm-1.494,7.468H22.987V26.87h4.481Z" transform="translate(543.886 1593.917)" fill="#067ce0"/>
      <path id="Path_142" data-name="Path 142" d="M17.962,32.883H10.494A1.494,1.494,0,0,0,9,34.377v7.468a1.494,1.494,0,0,0,1.494,1.494h7.468a1.494,1.494,0,0,0,1.494-1.494V34.377A1.494,1.494,0,0,0,17.962,32.883Zm-1.494,7.468H11.987V35.87h4.481Z" transform="translate(538.456 1598.36)" fill="#067ce0"/>
      <path id="Path_143" data-name="Path 143" d="M28.962,32.883H21.494A1.494,1.494,0,0,0,20,34.377v7.468a1.494,1.494,0,0,0,1.494,1.494h7.468a1.494,1.494,0,0,0,1.494-1.494V34.377A1.494,1.494,0,0,0,28.962,32.883Zm-1.494,7.468H22.987V35.87h4.481Z" transform="translate(543.886 1598.36)" fill="#067ce0"/>
      <path id="Path_144" data-name="Path 144" d="M17.962,41.883H10.494A1.494,1.494,0,0,0,9,43.377v7.468a1.494,1.494,0,0,0,1.494,1.494h7.468a1.494,1.494,0,0,0,1.494-1.494V43.377A1.494,1.494,0,0,0,17.962,41.883Zm-1.494,7.468H11.987V44.87h4.481Z" transform="translate(538.456 1602.803)" fill="#067ce0"/>
      <path id="Path_145" data-name="Path 145" d="M28.962,41.883H21.494A1.494,1.494,0,0,0,20,43.377v7.468a1.494,1.494,0,0,0,1.494,1.494h7.468a1.494,1.494,0,0,0,1.494-1.494V43.377A1.494,1.494,0,0,0,28.962,41.883Zm-1.494,7.468H22.987V44.87h4.481Z" transform="translate(543.886 1602.803)" fill="#067ce0"/>
      <path id="Path_146" data-name="Path 146" d="M17.962,50.883H10.494A1.494,1.494,0,0,0,9,52.377v7.468a1.494,1.494,0,0,0,1.494,1.494h7.468a1.494,1.494,0,0,0,1.494-1.494V52.377A1.494,1.494,0,0,0,17.962,50.883Zm-1.494,7.468H11.987V53.87h4.481Z" transform="translate(538.456 1607.246)" fill="#067ce0"/>
      <path id="Path_147" data-name="Path 147" d="M28.962,50.883H21.494A1.494,1.494,0,0,0,20,52.377v7.468a1.494,1.494,0,0,0,1.494,1.494h7.468a1.494,1.494,0,0,0,1.494-1.494V52.377A1.494,1.494,0,0,0,28.962,50.883Zm-1.494,7.468H22.987V53.87h4.481Z" transform="translate(543.886 1607.246)" fill="#067ce0"/>
      <path id="Path_148" data-name="Path 148" d="M36.481,21A4.481,4.481,0,0,0,32,25.481v2.987a1.494,1.494,0,0,0,1.494,1.494h5.975a1.494,1.494,0,0,0,1.494-1.494V25.481A4.481,4.481,0,0,0,36.481,21Zm1.494,5.975H34.987V25.481a1.494,1.494,0,1,1,2.987,0Z" transform="translate(549.81 1592.494)" fill="#067ce0"/>
      <path id="Path_149" data-name="Path 149" d="M44.481,21A4.481,4.481,0,0,0,40,25.481v2.987a1.494,1.494,0,0,0,1.494,1.494h5.975a1.494,1.494,0,0,0,1.494-1.494V25.481A4.481,4.481,0,0,0,44.481,21Zm1.494,5.975H42.987V25.481a1.494,1.494,0,0,1,2.987,0Z" transform="translate(553.759 1592.494)" fill="#067ce0"/>
      <path id="Path_150" data-name="Path 150" d="M36.481,29A4.481,4.481,0,0,0,32,33.481v2.987a1.494,1.494,0,0,0,1.494,1.494h5.975a1.494,1.494,0,0,0,1.494-1.494V33.481A4.481,4.481,0,0,0,36.481,29Zm1.494,5.975H34.987V33.481a1.494,1.494,0,1,1,2.987,0Z" transform="translate(549.81 1596.443)" fill="#067ce0"/>
      <path id="Path_151" data-name="Path 151" d="M44.481,29A4.481,4.481,0,0,0,40,33.481v2.987a1.494,1.494,0,0,0,1.494,1.494h5.975a1.494,1.494,0,0,0,1.494-1.494V33.481A4.481,4.481,0,0,0,44.481,29Zm1.494,5.975H42.987V33.481a1.494,1.494,0,0,1,2.987,0Z" transform="translate(553.759 1596.443)" fill="#067ce0"/>
      <path id="Path_152" data-name="Path 152" d="M36.481,37A4.481,4.481,0,0,0,32,41.481v2.987a1.494,1.494,0,0,0,1.494,1.494h5.975a1.494,1.494,0,0,0,1.494-1.494V41.481A4.481,4.481,0,0,0,36.481,37Zm1.494,5.975H34.987V41.481a1.494,1.494,0,1,1,2.987,0Z" transform="translate(549.81 1600.393)" fill="#067ce0"/>
      <path id="Path_153" data-name="Path 153" d="M44.481,37A4.481,4.481,0,0,0,40,41.481v2.987a1.494,1.494,0,0,0,1.494,1.494h5.975a1.494,1.494,0,0,0,1.494-1.494V41.481A4.481,4.481,0,0,0,44.481,37Zm1.494,5.975H42.987V41.481a1.494,1.494,0,0,1,2.987,0Z" transform="translate(553.759 1600.393)" fill="#067ce0"/>
      <path id="Path_154" data-name="Path 154" d="M36.481,45A4.481,4.481,0,0,0,32,49.481v2.987a1.494,1.494,0,0,0,1.494,1.494h5.975a1.494,1.494,0,0,0,1.494-1.494V49.481A4.481,4.481,0,0,0,36.481,45Zm1.494,5.975H34.987V49.481a1.494,1.494,0,1,1,2.987,0Z" transform="translate(549.81 1604.342)" fill="#067ce0"/>
      <path id="Path_155" data-name="Path 155" d="M44.481,45A4.481,4.481,0,0,0,40,49.481v2.987a1.494,1.494,0,0,0,1.494,1.494h5.975a1.494,1.494,0,0,0,1.494-1.494V49.481A4.481,4.481,0,0,0,44.481,45Zm1.494,5.975H42.987V49.481a1.494,1.494,0,0,1,2.987,0Z" transform="translate(553.759 1604.342)" fill="#067ce0"/>
      <path id="Path_156" data-name="Path 156" d="M84.151,78.64a9.709,9.709,0,1,0-9.993-14.264V12.509a1.494,1.494,0,0,0-2.036-1.392L46.81,20.963V13.495A3.619,3.619,0,0,0,43.195,9.88H8.6a3.619,3.619,0,0,0-3.615,3.615V84.563H2V87.55H91.619V84.563H84.151Zm-1.494-16.3A6.721,6.721,0,0,1,84.151,75.6V69.805H81.164V75.6a6.721,6.721,0,0,1,1.494-13.262Zm-1.494,16.3v5.922H74.158V73.741A9.722,9.722,0,0,0,81.164,78.64ZM7.975,13.495a.635.635,0,0,1,.627-.627H43.195a.635.635,0,0,1,.627.627V22.12l-1.855.723a1.494,1.494,0,0,0-.953,1.391V84.563H7.975ZM44,84.563v-59.3L71.171,14.69V84.563Z" transform="translate(535 1587.005)" fill="#067ce0"/>
    </g>
    <g id="Group_287" data-name="Group 287" transform="translate(0 -121)">
      <g id="Group_252" data-name="Group 252" transform="translate(1279 1538)">
        <path id="Path_221" data-name="Path 221" d="M26.453,16.605H37.359a1.561,1.561,0,0,0,1.653-1.653A1.561,1.561,0,0,0,37.359,13.3H26.453A1.561,1.561,0,0,0,24.8,14.953,1.656,1.656,0,0,0,26.453,16.605Z" transform="translate(14.531 -7.02)" fill="#067ce0"/>
        <path id="Path_222" data-name="Path 222" d="M8.453,12.805H28.614a1.561,1.561,0,0,0,1.653-1.653A1.561,1.561,0,0,0,28.614,9.5H8.453A1.561,1.561,0,0,0,6.8,11.153,1.656,1.656,0,0,0,8.453,12.805Z" transform="translate(2.785 -9.5)" fill="#067ce0"/>
        <path id="Path_223" data-name="Path 223" d="M46.78,39H22.653a1.653,1.653,0,1,0,0,3.305H46.78a1.653,1.653,0,0,0,0-3.305Z" transform="translate(12.051 9.75)" fill="#067ce0"/>
        <path id="Path_224" data-name="Path 224" d="M99.657,17.8H5.792A4.8,4.8,0,0,0,1,22.592V63.245a4.8,4.8,0,0,0,4.792,4.792H10.75a8.883,8.883,0,0,0,8.759,7.271,9.017,9.017,0,0,0,8.759-7.271H67.433a8.883,8.883,0,0,0,8.759,7.271,9.017,9.017,0,0,0,8.759-7.271h7.767a4.8,4.8,0,0,0,4.792-4.792V34.491a16.745,16.745,0,0,0-6.775-13.386h8.924a3.74,3.74,0,0,1,3.8,3.8v9.42a1.653,1.653,0,1,0,3.305,0v-9.42A7.053,7.053,0,0,0,99.657,17.8ZM54.047,38.622V21.105h13.22V38.622Zm-33.216,0V21.105h13.22V38.622ZM37.356,21.105h13.22V38.622H37.356Zm-31.564,0H17.526V38.622H4.305V22.592A1.481,1.481,0,0,1,5.792,21.105ZM19.509,72a5.619,5.619,0,0,1,0-11.237,5.678,5.678,0,0,1,5.619,5.619A5.572,5.572,0,0,1,19.509,72Zm56.517,0a5.619,5.619,0,1,1,0-11.237,5.678,5.678,0,0,1,5.619,5.619A5.572,5.572,0,0,1,76.026,72ZM92.551,64.9H84.784a8.883,8.883,0,0,0-8.759-7.271A9.017,9.017,0,0,0,67.267,64.9h-39a8.883,8.883,0,0,0-8.759-7.271A9.017,9.017,0,0,0,10.75,64.9H5.792A1.481,1.481,0,0,1,4.305,63.41V49.859H10.75a1.653,1.653,0,1,0,0-3.305H4.305V42.092H94.039v4.462H85.28a1.561,1.561,0,0,0-1.653,1.653,9.592,9.592,0,0,0,9.585,9.585H94.2V63.41A1.94,1.94,0,0,1,92.551,64.9Zm1.487-10.576h-.992a6.55,6.55,0,0,1-6.114-4.627h6.941v4.627Zm0-19.831v4.3H70.572V21.105H80.818A13.3,13.3,0,0,1,94.039,34.491Z" transform="translate(-1 -4.084)" fill="#067ce0"/>
        <path id="Path_225" data-name="Path 225" d="M53.19,54.5H22.453a1.653,1.653,0,0,0,0,3.305H53.025a1.561,1.561,0,0,0,1.653-1.653A1.439,1.439,0,0,0,53.19,54.5Z" transform="translate(11.921 19.865)" fill="#067ce0"/>
        <path id="Path_226" data-name="Path 226" d="M15.6,56.136a1.653,1.653,0,1,0,3.305,0A1.656,1.656,0,0,0,15.6,56.136Z" transform="translate(8.527 19.881)" fill="#067ce0"/>
        <path id="Path_227" data-name="Path 227" d="M15.089,54.5H7.653a1.653,1.653,0,0,0,0,3.305h7.436a1.561,1.561,0,0,0,1.653-1.653A1.656,1.656,0,0,0,15.089,54.5Z" transform="translate(2.263 19.865)" fill="#067ce0"/>
      </g>
    </g>
    <g id="Group_285" data-name="Group 285" transform="translate(0 -121)">
      <g id="Group_253" data-name="Group 253" transform="translate(812 1538)">
        <path id="Path_228" data-name="Path 228" d="M79.495,5.236a1.294,1.294,0,0,0-1.12-.647H51.191V3.294a1.294,1.294,0,1,0-2.589,0V31.007a6.368,6.368,0,0,0-4.377,3.214L37.189,47.014h0l-4.122,7.494-3.39-6.164a6.472,6.472,0,0,0-11.342,0L2.16,77.753A1.294,1.294,0,0,0,3.294,79.67H78.375a1.294,1.294,0,0,0,1.134-1.917L61.859,45.661h0L55.567,34.221a6.368,6.368,0,0,0-4.377-3.214V25.3H78.375A1.294,1.294,0,0,0,79.5,23.359l-4.812-8.414L79.5,6.531A1.294,1.294,0,0,0,79.495,5.236ZM5.483,77.081,20.6,49.591a3.883,3.883,0,0,1,6.806,0l15.12,27.49Zm40,0L34.545,57.192l4.26-7.746.431.259a1.3,1.3,0,0,0,1.346,0l3.572-2.179L47.732,49.7a1.3,1.3,0,0,0,1.348,0l3.578-2.179,3.582,2.181a1.294,1.294,0,0,0,1.345,0l2.659-1.616L76.186,77.081ZM53.3,35.468,59,45.824l-2.082,1.265L53.332,44.91a1.3,1.3,0,0,0-1.346,0l-3.577,2.179L44.831,44.91a1.3,1.3,0,0,0-1.348,0l-3.28,2,6.29-11.438a3.883,3.883,0,0,1,6.806,0ZM72.07,14.3a1.3,1.3,0,0,0,0,1.284l4.074,7.125H51.191V7.178H76.144Z" transform="translate(-2 -2)" fill="#067ce0"/>
        <path id="Path_229" data-name="Path 229" d="M33.767,7.294a1.294,1.294,0,1,0-2.589,0,3.883,3.883,0,0,1-3.883,3.883,1.294,1.294,0,1,0,0,2.589,3.883,3.883,0,0,1,3.883,3.883,1.294,1.294,0,1,0,2.589,0,3.883,3.883,0,0,1,3.883-3.883,1.294,1.294,0,1,0,0-2.589,3.883,3.883,0,0,1-3.883-3.883Zm-1.295,6.472a6.5,6.5,0,0,0-1.294-1.294,6.494,6.494,0,0,0,1.294-1.294,6.5,6.5,0,0,0,1.295,1.294,6.5,6.5,0,0,0-1.295,1.294Z" transform="translate(5.068 -0.822)" fill="#067ce0"/>
        <path id="Path_230" data-name="Path 230" d="M53.767,23.294a1.294,1.294,0,1,0-2.589,0,3.883,3.883,0,0,1-3.883,3.883,1.294,1.294,0,0,0,0,2.589,3.883,3.883,0,0,1,3.883,3.884,1.294,1.294,0,1,0,2.589,0,3.884,3.884,0,0,1,3.883-3.883,1.294,1.294,0,1,0,0-2.589A3.884,3.884,0,0,1,53.767,23.294Zm-1.295,6.472a6.5,6.5,0,0,0-1.294-1.294,6.5,6.5,0,0,0,1.294-1.294,6.5,6.5,0,0,0,1.295,1.294A6.5,6.5,0,0,0,52.472,29.767Z" transform="translate(10.958 3.89)" fill="#067ce0"/>
        <path id="Path_231" data-name="Path 231" d="M3.485,28.24H34.172a1.3,1.3,0,0,0,1.248-.957,6.186,6.186,0,0,0,.237-1.632,6.594,6.594,0,0,0-7.623-6.4A9.377,9.377,0,0,0,19.5,14a9.358,9.358,0,0,0-8.651,5.528,6.813,6.813,0,0,0-2.154-.35A6.6,6.6,0,0,0,2,25.651a6.186,6.186,0,0,0,.237,1.632,1.3,1.3,0,0,0,1.248.957ZM8.7,21.767a4.243,4.243,0,0,1,2.235.637,1.295,1.295,0,0,0,1.942-.8A6.712,6.712,0,0,1,19.5,16.589a6.746,6.746,0,0,1,6.514,4.572,1.294,1.294,0,0,0,1.63.834,4.259,4.259,0,0,1,1.313-.228,4.005,4.005,0,0,1,4.109,3.883H4.589A4.005,4.005,0,0,1,8.7,21.767Z" transform="translate(-2 1.534)" fill="#067ce0"/>
        <path id="Path_232" data-name="Path 232" d="M15.294,48A1.294,1.294,0,0,0,14,49.295v2.589a1.294,1.294,0,0,0,2.589,0V49.295A1.294,1.294,0,0,0,15.294,48Z" transform="translate(1.534 11.547)" fill="#067ce0"/>
        <path id="Path_233" data-name="Path 233" d="M12.294,51A1.294,1.294,0,0,0,11,52.294v2.589a1.294,1.294,0,0,0,2.589,0V52.294A1.3,1.3,0,0,0,12.294,51Z" transform="translate(0.65 12.43)" fill="#067ce0"/>
        <path id="Path_234" data-name="Path 234" d="M45.295,47A1.3,1.3,0,0,0,44,48.294v2.589a1.294,1.294,0,0,0,2.589,0V48.294A1.3,1.3,0,0,0,45.295,47Z" transform="translate(10.369 11.252)" fill="#067ce0"/>
        <path id="Path_235" data-name="Path 235" d="M41.294,50A1.294,1.294,0,0,0,40,51.295v2.589a1.295,1.295,0,0,0,2.589,0V51.295A1.3,1.3,0,0,0,41.294,50Z" transform="translate(9.191 12.136)" fill="#067ce0"/>
      </g>
    </g>
    <g id="Group_286" data-name="Group 286" transform="translate(0 -121)">
      <g id="Group_254" data-name="Group 254" transform="translate(1049 1532.506)">
        <path id="Path_236" data-name="Path 236" d="M81.79,40.432H71.235A14.426,14.426,0,0,0,68.37,34.4L80.809,11.969a1.745,1.745,0,0,0-3.052-1.693l-11.978,21.6a14.442,14.442,0,0,0-3.795-2.032L69.532,7.806a1.746,1.746,0,0,0-3.3-1.132L58.562,29.056a14.844,14.844,0,0,0-1.52-.084A14.471,14.471,0,0,0,51.1,30.25a14.521,14.521,0,0,0-27.691,1.371,10.653,10.653,0,0,0-9.2,8.811H6.745A1.746,1.746,0,0,0,5,42.177,38.992,38.992,0,0,0,23.1,75.234v2.943a4.993,4.993,0,0,0,4.987,4.987H60.45a4.992,4.992,0,0,0,4.987-4.987V75.233a38.988,38.988,0,0,0,18.1-33.055A1.746,1.746,0,0,0,81.79,40.432Zm-14.148,0h-2.62l1.466-2.644A10.927,10.927,0,0,1,67.642,40.432Zm-3.586-5.455-3.025,5.455H58.355l2.5-7.291A11,11,0,0,1,64.056,34.978Zm-.871,37.561H36.123a1.745,1.745,0,1,0,0,3.49H61.947v2.149a1.5,1.5,0,0,1-1.5,1.5H28.086a1.5,1.5,0,0,1-1.5-1.5V76.029h5.026a1.745,1.745,0,1,0,0-3.49H25.35A35.522,35.522,0,0,1,9.617,51.107h59.23a1.745,1.745,0,1,0,0-3.49H8.911a36.39,36.39,0,0,1-.38-3.694H47.758a1.745,1.745,0,1,0,0-3.49H17.769A7.16,7.16,0,0,1,24.7,35.026h.147a1.661,1.661,0,0,0,.331-.034c.038-.007.074-.021.112-.031a1.749,1.749,0,0,0,.2-.062c.043-.017.082-.038.123-.058a1.631,1.631,0,0,0,.163-.088c.039-.024.075-.052.113-.079a1.52,1.52,0,0,0,.142-.118c.033-.031.064-.063.094-.1a1.75,1.75,0,0,0,.12-.146c.026-.036.052-.072.076-.109.033-.053.062-.109.09-.166s.041-.084.058-.127a1.7,1.7,0,0,0,.054-.175c.013-.048.027-.1.037-.146,0-.014.008-.027.01-.042a11.035,11.035,0,0,1,21.734-.4c.006.03.018.057.026.086a1.7,1.7,0,0,0,.072.241,1.654,1.654,0,0,0,.112.214c.017.029.027.06.046.088l0,0a1.746,1.746,0,0,0,.2.241,1.686,1.686,0,0,0,.184.161c.033.026.064.058.1.081.052.035.109.06.164.09s.087.052.134.072.082.025.123.039a1.615,1.615,0,0,0,.2.062c.022,0,.044,0,.067.007a1.732,1.732,0,0,0,.331.024,1.8,1.8,0,0,0,.281-.025h.005c.036-.007.068-.022.1-.031a1.325,1.325,0,0,0,.47-.2c.018-.011.038-.017.056-.03l.01-.005,0,0a11,11,0,0,1,6.054-1.811c.117,0,.231.012.348.017l-2.725,7.953H52.557a1.745,1.745,0,1,0,0,3.49H80a36.389,36.389,0,0,1-.38,3.694H73.718a1.745,1.745,0,1,0,0,3.49h5.2A35.522,35.522,0,0,1,63.186,72.538Z" fill="#067ce0"/>
      </g>
    </g>
    <g id="Group_255" data-name="Group 255" transform="translate(-520.334 -307.864)">
      <path id="Path_215" data-name="Path 215" d="M21.88,42.115a1.153,1.153,0,0,0,1.153,1.153h6.92a1.153,1.153,0,0,0,0-2.307h-5.93a4.588,4.588,0,0,0-8.9,0h-2.47a1.153,1.153,0,1,0,0,2.307h3.46a1.153,1.153,0,0,0,1.153-1.153h0a2.307,2.307,0,0,1,4.613,0Z" transform="translate(800.036 1687.376)" fill="#067ce0"/>
      <path id="Path_216" data-name="Path 216" d="M76.5,49.615a1.153,1.153,0,0,0,1.153,1.153h3.46a1.153,1.153,0,0,0,1.153-1.153h0a2.307,2.307,0,0,1,4.613,0,1.153,1.153,0,0,0,1.153,1.153h2.883a1.153,1.153,0,1,0,0-2.307H89.024a4.588,4.588,0,0,0-8.9,0h-2.47A1.153,1.153,0,0,0,76.5,49.615Z" transform="translate(768.634 1716.426)" fill="#067ce0"/>
      <path id="Path_217" data-name="Path 217" d="M47.113,30.113a1.153,1.153,0,0,0,1.153-1.153,1.153,1.153,0,0,1,2.307,0,1.153,1.153,0,0,0,1.153,1.153h6.92a1.153,1.153,0,0,0,0-2.307H52.668a3.44,3.44,0,0,0-6.5,0H43.653a1.153,1.153,0,1,0,0,2.307Z" transform="translate(801.903 1712.476)" fill="#067ce0"/>
      <path id="Path_219" data-name="Path 219" d="M83.113,31.807a1.153,1.153,0,0,0,0-2.307h-3.46a1.153,1.153,0,0,0,0,2.307Z" transform="translate(736.231 1739.064)" fill="#067ce0"/>
      <path id="Path_237" data-name="Path 237" d="M78.583,74.725,71.477,64.013C75.3,58.9,75.969,52.527,76.087,50.485l5.106-4.634-1.94-2.138L52.788,67.737a42.955,42.955,0,0,1-8.482-2.3l-1.009,2.7a49.242,49.242,0,0,0,6.808,2.028L45.09,74.724H40.446c-.9-3.987-5.152-7.094-10.778-7.917-.1-22.471,3.061-26.314,3.467-26.711,7.437-3.525,16.537,5.6,16.628,5.694a1.443,1.443,0,0,0,2.407-1.441C48.086,31.311,41.479,26.86,38.925,25.579c.69-5.449,9.263-11.183,12.689-13.016a1.443,1.443,0,0,0-.536-2.708C37.655,8.513,32.4,15.881,30.515,20.092,20.325,7.845,6.23,15.378,6.082,15.459a1.443,1.443,0,0,0,.875,2.7c12.668-1.583,15.893,6.742,16.631,9.673C5.717,37.125,9.852,51.008,9.9,51.149a1.442,1.442,0,0,0,1.369,1.009,1.417,1.417,0,0,0,1.38-1c2.782-8.534,8.37-10.7,11.731-11.2-6.323,9.45-7.391,21.65-7.337,29.258a9.147,9.147,0,0,0-4.128,5.5H11.273v2.886H85.08V74.726h-6.5Zm-8.83-13.31-2.144-3.233,5.181-4.7A22.638,22.638,0,0,1,69.753,61.415Zm-1.886,2.378a13.547,13.547,0,0,1-2.039,1.728,15.679,15.679,0,0,1-9.1,2.541l8.721-7.917ZM53.735,70.776a28.137,28.137,0,0,0,3.051.173A18.438,18.438,0,0,0,67.478,67.89,16.468,16.468,0,0,0,69.5,66.248l5.624,8.479H49.384ZM28.416,39.352a1.444,1.444,0,0,0-.929-2.345,16.394,16.394,0,0,0-14.911,7.579c.819-4.235,3.83-10.054,13.274-14.669a1.445,1.445,0,0,0,.8-1.477c-.015-.121-1.338-9.588-10.634-12.519,4.328,0,9.544,1.681,13.769,8.015A1.443,1.443,0,0,0,32.4,23.4c.083-.446,1.982-9.831,13.639-10.751C41.76,15.647,35.8,20.865,36,26.555a1.457,1.457,0,0,0,.99,1.319c.068.023,6.041,2.162,10.581,12.406-3.944-2.705-10.042-5.551-15.751-2.75-1.292.57-5.115,4.393-5.035,29.063-.035,0-.068,0-.1,0a19.248,19.248,0,0,0-6.714,1.161C20.086,59.794,21.549,47.746,28.416,39.352ZM26.679,69.475c5.135,0,9.576,2.281,10.764,5.25H15.923C17.107,71.756,21.545,69.475,26.679,69.475Z" transform="translate(756 1724.922)" fill="#067ce0"/>
      <path id="Path_238" data-name="Path 238" d="M80.162,26.178a7.513,7.513,0,1,0-7.513,7.512A7.521,7.521,0,0,0,80.162,26.178ZM72.65,30.8a4.626,4.626,0,1,1,4.627-4.626A4.632,4.632,0,0,1,72.65,30.8Z" transform="translate(753.731 1724.581)" fill="#067ce0"/>
      <rect id="Rectangle_429" data-name="Rectangle 429" width="2.886" height="4.077" transform="translate(824.938 1738.21)" fill="#067ce0"/>
      <rect id="Rectangle_430" data-name="Rectangle 430" width="2.886" height="4.077" transform="translate(824.938 1759.216)" fill="#067ce0"/>
      <rect id="Rectangle_431" data-name="Rectangle 431" width="2.886" height="4.076" transform="translate(818.534 1760.641) rotate(-135)" fill="#067ce0"/>
      <rect id="Rectangle_432" data-name="Rectangle 432" width="2.886" height="4.076" transform="translate(834.229 1740.863) rotate(45)" fill="#067ce0"/>
      <rect id="Rectangle_433" data-name="Rectangle 433" width="4.076" height="2.886" transform="matrix(0.707, 0.707, -0.707, 0.707, 833.383, 1755.718)" fill="#067ce0"/>
      <rect id="Rectangle_434" data-name="Rectangle 434" width="4.076" height="2.886" transform="matrix(0.707, 0.707, -0.707, 0.707, 818.531, 1740.865)" fill="#067ce0"/>
      <rect id="Rectangle_435" data-name="Rectangle 435" width="4.077" height="2.886" transform="translate(834.846 1749.309)" fill="#067ce0"/>
      <rect id="Rectangle_436" data-name="Rectangle 436" width="4.077" height="2.886" transform="translate(813.84 1749.309)" fill="#067ce0"/>
    </g>
  </g>
</svg>
